<?xml version="1.0" standalone="no"?>
<!DOCTYPE svg PUBLIC "-//W3C//DTD SVG 20010904//EN"
 "http://www.w3.org/TR/2001/REC-SVG-20010904/DTD/svg10.dtd">
<svg version="1.0" xmlns="http://www.w3.org/2000/svg"
 width="300.000000pt" height="300.000000pt" viewBox="0 0 300.000000 300.000000"
 preserveAspectRatio="xMidYMid meet">
<metadata>
Created by potrace 1.10, written by Peter Selinger 2001-2011
</metadata>
<g transform="translate(0.000000,300.000000) scale(0.100000,-0.100000)"
fill="#000000" stroke="none">
<path d="M795 1998 c-167 -32 -324 -178 -377 -351 -17 -57 -20 -86 -15 -170 6
-123 27 -185 98 -279 111 -149 286 -223 465 -197 75 10 116 29 162 72 l32 31
0 -57 0 -57 140 0 140 0 0 510 0 510 -140 0 -140 0 0 -50 0 -50 -48 35 c-81
58 -194 77 -317 53z m210 -267 c51 -23 118 -98 133 -149 46 -152 -45 -298
-200 -324 -56 -9 -70 -8 -120 11 -151 58 -210 237 -123 370 29 43 86 87 131
101 51 15 137 11 179 -9z"/>
<path d="M2030 1999 c-70 -8 -117 -28 -163 -69 l-37 -32 0 51 0 51 -135 0
-135 0 0 -695 0 -695 135 0 135 0 0 241 0 241 35 -26 c188 -143 502 -66 647
158 98 152 105 368 18 521 -102 178 -298 278 -500 254z m160 -275 c126 -53
182 -220 114 -344 -59 -108 -173 -154 -297 -119 -54 15 -142 102 -156 154 -25
93 -7 182 54 253 63 75 182 99 285 56z"/>
</g>
</svg>
